<svg width="376" height="31" viewBox="0 0 376 31" fill="none" xmlns="http://www.w3.org/2000/svg">
<path d="M10.584 4.332C12.48 4.332 14.148 4.608 15.588 5.16C17.052 5.712 18.36 6.54 19.512 7.644L16.524 11.172C14.796 9.804 12.984 9.12 11.088 9.12C10.104 9.12 9.348 9.312 8.82 9.696C8.316 10.056 8.064 10.572 8.064 11.244C8.064 11.724 8.196 12.12 8.46 12.432C8.724 12.744 9.168 13.044 9.792 13.332C10.416 13.62 11.4 13.98 12.744 14.412C15.312 15.228 17.184 16.26 18.36 17.508C19.56 18.732 20.16 20.436 20.16 22.62C20.16 24.204 19.752 25.608 18.936 26.832C18.12 28.032 16.932 28.968 15.372 29.64C13.836 30.312 12.024 30.648 9.936 30.648C5.952 30.648 2.7 29.436 0.18 27.012L3.456 23.376C5.448 25.008 7.524 25.824 9.684 25.824C10.812 25.824 11.688 25.584 12.312 25.104C12.936 24.6 13.248 23.94 13.248 23.124C13.248 22.548 13.128 22.08 12.888 21.72C12.648 21.336 12.216 21 11.592 20.712C10.992 20.4 10.104 20.064 8.928 19.704C6.096 18.816 4.104 17.748 2.952 16.5C1.8 15.252 1.224 13.68 1.224 11.784C1.224 10.296 1.62 8.988 2.412 7.86C3.228 6.732 4.344 5.868 5.76 5.268C7.2 4.644 8.808 4.332 10.584 4.332ZM38.6668 24.096C38.6668 24.792 38.7508 25.308 38.9188 25.644C39.1108 25.98 39.4348 26.232 39.8908 26.4L38.5948 30.54C37.3708 30.444 36.3628 30.192 35.5708 29.784C34.8028 29.376 34.1788 28.728 33.6988 27.84C32.4748 29.712 30.5428 30.648 27.9028 30.648C26.0068 30.648 24.4828 30.096 23.3308 28.992C22.2028 27.864 21.6388 26.412 21.6388 24.636C21.6388 22.524 22.4188 20.904 23.9788 19.776C25.5388 18.648 27.7948 18.084 30.7468 18.084H32.4028V17.436C32.4028 16.404 32.1868 15.708 31.7548 15.348C31.3228 14.964 30.5428 14.772 29.4148 14.772C28.8148 14.772 28.0588 14.868 27.1468 15.06C26.2588 15.228 25.3468 15.468 24.4108 15.78L23.0068 11.64C24.1588 11.16 25.3948 10.8 26.7148 10.56C28.0348 10.296 29.2588 10.164 30.3868 10.164C33.2668 10.164 35.3668 10.74 36.6868 11.892C38.0068 13.02 38.6668 14.76 38.6668 17.112V24.096ZM29.8468 26.148C30.3748 26.148 30.8548 26.016 31.2868 25.752C31.7428 25.464 32.1148 25.08 32.4028 24.6V21.504H31.3228C30.1708 21.504 29.3188 21.72 28.7668 22.152C28.2148 22.56 27.9388 23.184 27.9388 24.024C27.9388 24.672 28.1068 25.188 28.4428 25.572C28.7788 25.956 29.2468 26.148 29.8468 26.148ZM64.2918 10.164C65.7798 10.164 66.9798 10.68 67.8918 11.712C68.8038 12.72 69.2598 14.124 69.2598 15.924V30H62.8518V17.076C62.8518 15.588 62.4198 14.844 61.5558 14.844C60.6678 14.844 59.8518 15.576 59.1078 17.04V30H52.6998V17.076C52.6998 15.588 52.2678 14.844 51.4038 14.844C50.5158 14.844 49.6998 15.576 48.9558 17.04V30H42.5478V10.812H48.1278L48.5958 12.936C49.3398 12 50.1558 11.304 51.0438 10.848C51.9558 10.392 52.9998 10.164 54.1758 10.164C55.1838 10.164 56.0718 10.416 56.8398 10.92C57.6078 11.4 58.1838 12.108 58.5678 13.044C59.3598 12.06 60.2118 11.34 61.1238 10.884C62.0358 10.404 63.0918 10.164 64.2918 10.164ZM89.5573 30H83.9773L83.7253 27.732C82.3813 29.676 80.4733 30.648 78.0013 30.648C76.2253 30.648 74.8813 30.12 73.9693 29.064C73.0813 27.984 72.6373 26.496 72.6373 24.6V10.812H79.0453V23.772C79.0453 24.588 79.1653 25.164 79.4053 25.5C79.6693 25.812 80.0533 25.968 80.5573 25.968C81.0133 25.968 81.4573 25.812 81.8893 25.5C82.3453 25.164 82.7653 24.684 83.1493 24.06V10.812H89.5573V30ZM110.701 20.1C110.701 20.244 110.665 20.964 110.593 22.26H98.8574C99.0254 23.724 99.4334 24.732 100.081 25.284C100.753 25.812 101.701 26.076 102.925 26.076C103.645 26.076 104.353 25.944 105.049 25.68C105.769 25.392 106.549 24.96 107.389 24.384L109.981 27.912C108.973 28.752 107.821 29.424 106.525 29.928C105.229 30.408 103.825 30.648 102.313 30.648C99.0494 30.648 96.5654 29.736 94.8614 27.912C93.1814 26.064 92.3414 23.592 92.3414 20.496C92.3414 18.552 92.6894 16.8 93.3854 15.24C94.1054 13.68 95.1614 12.444 96.5534 11.532C97.9454 10.62 99.6254 10.164 101.593 10.164C104.401 10.164 106.621 11.04 108.253 12.792C109.885 14.52 110.701 16.956 110.701 20.1ZM104.401 18.3C104.377 17.028 104.161 16.044 103.753 15.348C103.345 14.652 102.661 14.304 101.701 14.304C100.813 14.304 100.141 14.616 99.6854 15.24C99.2294 15.864 98.9414 16.956 98.8214 18.516H104.401V18.3ZM118.754 30.648C116.954 30.648 115.562 30.144 114.578 29.136C113.594 28.128 113.102 26.676 113.102 24.78V3.252L119.51 2.604V24.564C119.51 25.26 119.822 25.608 120.446 25.608C120.71 25.608 120.986 25.56 121.274 25.464L122.462 30C121.478 30.432 120.242 30.648 118.754 30.648ZM148.179 4.98L147.495 9.696H138.963V15.024H146.415V19.596H138.963V25.284H148.071V30H132.303V4.98H148.179ZM156.231 30.648C154.431 30.648 153.039 30.144 152.055 29.136C151.071 28.128 150.579 26.676 150.579 24.78V3.252L156.987 2.604V24.564C156.987 25.26 157.299 25.608 157.923 25.608C158.187 25.608 158.463 25.56 158.751 25.464L159.939 30C158.955 30.432 157.719 30.648 156.231 30.648ZM167.925 10.812V30H161.517V10.812H167.925ZM164.721 0.479998C165.801 0.479998 166.677 0.815998 167.349 1.488C168.045 2.16 168.393 3 168.393 4.008C168.393 5.016 168.045 5.856 167.349 6.528C166.677 7.2 165.801 7.536 164.721 7.536C163.641 7.536 162.753 7.2 162.057 6.528C161.385 5.856 161.049 5.016 161.049 4.008C161.049 3 161.385 2.16 162.057 1.488C162.753 0.815998 163.641 0.479998 164.721 0.479998ZM187.589 24.096C187.589 24.792 187.673 25.308 187.841 25.644C188.033 25.98 188.357 26.232 188.813 26.4L187.517 30.54C186.293 30.444 185.285 30.192 184.493 29.784C183.725 29.376 183.101 28.728 182.621 27.84C181.397 29.712 179.465 30.648 176.825 30.648C174.929 30.648 173.405 30.096 172.253 28.992C171.125 27.864 170.561 26.412 170.561 24.636C170.561 22.524 171.341 20.904 172.901 19.776C174.461 18.648 176.717 18.084 179.669 18.084H181.325V17.436C181.325 16.404 181.109 15.708 180.677 15.348C180.245 14.964 179.465 14.772 178.337 14.772C177.737 14.772 176.981 14.868 176.069 15.06C175.181 15.228 174.269 15.468 173.333 15.78L171.929 11.64C173.081 11.16 174.317 10.8 175.637 10.56C176.957 10.296 178.181 10.164 179.309 10.164C182.189 10.164 184.289 10.74 185.609 11.892C186.929 13.02 187.589 14.76 187.589 17.112V24.096ZM178.769 26.148C179.297 26.148 179.777 26.016 180.209 25.752C180.665 25.464 181.037 25.08 181.325 24.6V21.504H180.245C179.093 21.504 178.241 21.72 177.689 22.152C177.137 22.56 176.861 23.184 176.861 24.024C176.861 24.672 177.029 25.188 177.365 25.572C177.701 25.956 178.169 26.148 178.769 26.148ZM202.99 10.164C205.27 10.164 207.022 11.064 208.246 12.864C209.47 14.664 210.082 17.184 210.082 20.424C210.082 22.392 209.77 24.156 209.146 25.716C208.546 27.252 207.67 28.464 206.518 29.352C205.366 30.216 203.998 30.648 202.414 30.648C201.358 30.648 200.398 30.432 199.534 30C198.694 29.592 197.986 29.004 197.41 28.236L197.158 30H191.47V3.252L197.878 2.604V12.684C198.43 11.916 199.162 11.304 200.074 10.848C200.986 10.392 201.958 10.164 202.99 10.164ZM200.506 26.04C201.442 26.04 202.162 25.608 202.666 24.744C203.194 23.88 203.458 22.44 203.458 20.424C203.458 18.264 203.218 16.788 202.738 15.996C202.282 15.204 201.622 14.808 200.758 14.808C199.63 14.808 198.67 15.48 197.878 16.824V24.42C198.526 25.5 199.402 26.04 200.506 26.04ZM232.553 4.332C235.889 4.332 238.757 5.388 241.157 7.5L237.881 10.92C236.969 10.272 236.141 9.804 235.397 9.516C234.677 9.204 233.849 9.048 232.913 9.048C231.113 9.048 229.697 9.744 228.665 11.136C227.657 12.528 227.153 14.652 227.153 17.508C227.153 19.596 227.321 21.252 227.657 22.476C227.993 23.676 228.497 24.54 229.169 25.068C229.865 25.596 230.753 25.86 231.833 25.86C232.913 25.86 233.897 25.632 234.785 25.176V20.028H231.941L231.293 15.456H241.229V27.912C239.933 28.776 238.469 29.448 236.837 29.928C235.205 30.408 233.597 30.648 232.013 30.648C224.189 30.648 220.277 26.256 220.277 17.472C220.277 14.736 220.805 12.384 221.861 10.416C222.941 8.424 224.405 6.912 226.253 5.88C228.101 4.848 230.201 4.332 232.553 4.332ZM255.572 10.236C256.196 10.236 256.844 10.344 257.516 10.56L256.472 16.752C255.848 16.56 255.272 16.464 254.744 16.464C253.664 16.464 252.836 16.836 252.26 17.58C251.708 18.3 251.276 19.404 250.964 20.892V30H244.556V10.812H250.136L250.712 14.448C251.096 13.176 251.732 12.156 252.62 11.388C253.532 10.62 254.516 10.236 255.572 10.236ZM273.792 24.096C273.792 24.792 273.876 25.308 274.044 25.644C274.236 25.98 274.56 26.232 275.016 26.4L273.72 30.54C272.496 30.444 271.488 30.192 270.696 29.784C269.928 29.376 269.304 28.728 268.824 27.84C267.6 29.712 265.668 30.648 263.028 30.648C261.132 30.648 259.608 30.096 258.456 28.992C257.328 27.864 256.764 26.412 256.764 24.636C256.764 22.524 257.544 20.904 259.104 19.776C260.664 18.648 262.92 18.084 265.872 18.084H267.528V17.436C267.528 16.404 267.312 15.708 266.88 15.348C266.448 14.964 265.668 14.772 264.54 14.772C263.94 14.772 263.184 14.868 262.272 15.06C261.384 15.228 260.472 15.468 259.536 15.78L258.132 11.64C259.284 11.16 260.52 10.8 261.84 10.56C263.16 10.296 264.384 10.164 265.512 10.164C268.392 10.164 270.492 10.74 271.812 11.892C273.132 13.02 273.792 14.76 273.792 17.112V24.096ZM264.972 26.148C265.5 26.148 265.98 26.016 266.412 25.752C266.868 25.464 267.24 25.08 267.528 24.6V21.504H266.448C265.296 21.504 264.444 21.72 263.892 22.152C263.34 22.56 263.064 23.184 263.064 24.024C263.064 24.672 263.232 25.188 263.568 25.572C263.904 25.956 264.372 26.148 264.972 26.148ZM289.553 10.164C291.185 10.164 292.469 10.668 293.405 11.676C294.341 12.684 294.809 14.1 294.809 15.924V30H288.401V17.076C288.401 16.236 288.281 15.66 288.041 15.348C287.801 15.012 287.441 14.844 286.961 14.844C285.953 14.844 284.993 15.576 284.081 17.04V30H277.673V10.812H283.253L283.721 12.972C284.585 12.012 285.485 11.304 286.421 10.848C287.357 10.392 288.401 10.164 289.553 10.164ZM314.292 24.096C314.292 24.792 314.376 25.308 314.544 25.644C314.736 25.98 315.06 26.232 315.516 26.4L314.22 30.54C312.996 30.444 311.988 30.192 311.196 29.784C310.428 29.376 309.804 28.728 309.324 27.84C308.1 29.712 306.168 30.648 303.528 30.648C301.632 30.648 300.108 30.096 298.956 28.992C297.828 27.864 297.264 26.412 297.264 24.636C297.264 22.524 298.044 20.904 299.604 19.776C301.164 18.648 303.42 18.084 306.372 18.084H308.028V17.436C308.028 16.404 307.812 15.708 307.38 15.348C306.948 14.964 306.168 14.772 305.04 14.772C304.44 14.772 303.684 14.868 302.772 15.06C301.884 15.228 300.972 15.468 300.036 15.78L298.632 11.64C299.784 11.16 301.02 10.8 302.34 10.56C303.66 10.296 304.884 10.164 306.012 10.164C308.892 10.164 310.992 10.74 312.312 11.892C313.632 13.02 314.292 14.76 314.292 17.112V24.096ZM305.472 26.148C306 26.148 306.48 26.016 306.912 25.752C307.368 25.464 307.74 25.08 308.028 24.6V21.504H306.948C305.796 21.504 304.944 21.72 304.392 22.152C303.84 22.56 303.564 23.184 303.564 24.024C303.564 24.672 303.732 25.188 304.068 25.572C304.404 25.956 304.872 26.148 305.472 26.148ZM336.029 3.252V30H330.341L330.089 27.876C329.513 28.692 328.769 29.364 327.857 29.892C326.969 30.396 325.901 30.648 324.653 30.648C322.253 30.648 320.441 29.736 319.217 27.912C317.993 26.088 317.381 23.568 317.381 20.352C317.381 18.384 317.705 16.632 318.353 15.096C319.025 13.536 319.961 12.324 321.161 11.46C322.361 10.596 323.741 10.164 325.301 10.164C327.029 10.164 328.469 10.716 329.621 11.82V2.604L336.029 3.252ZM326.741 26.04C327.893 26.04 328.853 25.404 329.621 24.132V16.104C329.213 15.648 328.817 15.312 328.433 15.096C328.049 14.88 327.605 14.772 327.101 14.772C326.141 14.772 325.373 15.228 324.797 16.14C324.245 17.028 323.969 18.444 323.969 20.388C323.969 22.548 324.209 24.036 324.689 24.852C325.169 25.644 325.853 26.04 326.741 26.04ZM348.399 10.164C351.399 10.164 353.751 11.064 355.455 12.864C357.159 14.664 358.011 17.184 358.011 20.424C358.011 22.488 357.627 24.288 356.859 25.824C356.091 27.36 354.975 28.548 353.511 29.388C352.071 30.228 350.367 30.648 348.399 30.648C345.399 30.648 343.047 29.748 341.343 27.948C339.639 26.148 338.787 23.628 338.787 20.388C338.787 18.324 339.171 16.524 339.939 14.988C340.707 13.452 341.811 12.264 343.251 11.424C344.715 10.584 346.431 10.164 348.399 10.164ZM348.399 14.808C347.367 14.808 346.599 15.264 346.095 16.176C345.615 17.064 345.375 18.468 345.375 20.388C345.375 22.38 345.615 23.82 346.095 24.708C346.599 25.572 347.367 26.004 348.399 26.004C349.431 26.004 350.187 25.56 350.667 24.672C351.171 23.76 351.423 22.344 351.423 20.424C351.423 18.456 351.171 17.028 350.667 16.14C350.187 15.252 349.431 14.808 348.399 14.808ZM368.018 10.164C369.41 10.164 370.73 10.38 371.978 10.812C373.25 11.244 374.33 11.832 375.218 12.576L372.914 16.104C371.378 15.144 369.83 14.664 368.27 14.664C367.598 14.664 367.094 14.772 366.758 14.988C366.446 15.18 366.29 15.456 366.29 15.816C366.29 16.128 366.374 16.38 366.542 16.572C366.71 16.764 367.058 16.98 367.586 17.22C368.138 17.436 369.002 17.724 370.178 18.084C372.146 18.66 373.598 19.416 374.534 20.352C375.47 21.264 375.938 22.548 375.938 24.204C375.938 25.5 375.554 26.64 374.786 27.624C374.042 28.584 372.998 29.328 371.654 29.856C370.334 30.384 368.834 30.648 367.154 30.648C365.522 30.648 363.986 30.396 362.546 29.892C361.13 29.364 359.93 28.644 358.946 27.732L362.006 24.312C362.75 24.888 363.542 25.344 364.382 25.68C365.246 26.016 366.11 26.184 366.974 26.184C367.742 26.184 368.33 26.064 368.738 25.824C369.17 25.56 369.386 25.176 369.386 24.672C369.386 24.288 369.29 23.988 369.098 23.772C368.93 23.556 368.594 23.352 368.09 23.16C367.586 22.944 366.722 22.656 365.498 22.296C361.778 21.192 359.918 19.164 359.918 16.212C359.918 15.084 360.242 14.064 360.89 13.152C361.538 12.216 362.462 11.484 363.662 10.956C364.886 10.428 366.338 10.164 368.018 10.164Z" fill="black"/>
</svg>
